<svg width="271" height="271" viewBox="0 0 271 271" fill="none" xmlns="http://www.w3.org/2000/svg">
<path d="M135.5 0C108.701 0 82.5031 7.94693 60.2203 22.8359C37.9374 37.7248 20.5701 58.887 10.3144 83.6464C0.0587102 108.406 -2.62464 135.65 2.60365 161.935C7.83195 188.219 20.7371 212.363 39.6871 231.313C58.6371 250.263 82.7809 263.168 109.065 268.396C135.35 273.625 162.594 270.941 187.354 260.686C212.113 250.43 233.275 233.063 248.164 210.78C263.053 188.497 271 162.299 271 135.5C271 99.5631 256.724 65.0982 231.313 39.687C205.902 14.2758 171.437 0 135.5 0V0ZM30.1112 135.5C30.0874 115.935 35.5165 96.7505 45.7893 80.0995C56.0621 63.4485 70.7721 49.9898 88.2684 41.2338C105.765 32.4778 125.355 28.7711 144.841 30.5295C164.327 32.288 182.937 39.442 198.583 51.1889L51.1889 198.583C37.4842 180.41 30.0837 158.261 30.1112 135.5ZM135.5 240.889C112.739 240.917 90.5897 233.517 72.4173 219.811L219.811 72.4172C231.558 88.0633 238.712 106.673 240.47 126.159C242.229 145.645 238.522 165.235 229.766 182.732C221.01 200.228 207.552 214.938 190.9 225.211C174.249 235.483 155.065 240.913 135.5 240.889Z" fill="#121212"/>
</svg>
